<svg xmlns="http://www.w3.org/2000/svg" style="display: none;"><symbol id="about" viewbox="0 0 200 200"><path d="M100 179.931c44.145 0 79.93-35.786 79.93-79.93 0-44.145-35.785-79.931-79.93-79.931-44.144 0-79.93 35.786-79.93 79.93 0 44.145 35.786 79.931 79.93 79.931zm0 19.983c-55.18 0-99.913-44.733-99.913-99.913S44.819.087 100 .087c55.18 0 99.913 44.733 99.913 99.914 0 55.18-44.732 99.913-99.913 99.913zm0 0zM86.013 61.034c0 8.277 6.709 14.987 14.986 14.987 8.277 0 14.988-6.71 14.988-14.987 0-8.278-6.71-14.988-14.988-14.988-8.277 0-14.986 6.71-14.986 14.988zm15.986 24.979c5.518 0 9.991 4.48 9.991 9.983v49.972c0 5.514-4.485 9.984-9.991 9.984-5.518 0-9.992-4.481-9.992-9.984V95.996c0-5.515 4.484-9.983 9.992-9.983zm0 0z" class="transform-group"/></symbol><symbol id="gear" viewbox="0 0 200 200"><path d="M199.371 88.896c-.316-2.811-3.594-4.924-6.428-4.924-9.165 0-17.297-5.38-20.707-13.702-3.484-8.524-1.238-18.464 5.592-24.73a5.554 5.554 0 0 0 .608-7.54 98.954 98.954 0 0 0-15.842-15.999 5.565 5.565 0 0 0-7.6.614c-5.96 6.602-16.667 9.055-24.94 5.603-8.61-3.622-14.04-12.346-13.508-21.711a5.548 5.548 0 0 0-4.908-5.841 99.837 99.837 0 0 0-22.497-.06 5.565 5.565 0 0 0-4.951 5.722c.325 9.273-5.17 17.845-13.693 21.336-8.175 3.34-18.806.907-24.755-5.636a5.577 5.577 0 0 0-7.547-.635 99.327 99.327 0 0 0-16.177 15.994 5.563 5.563 0 0 0 .597 7.601c6.96 6.303 9.207 16.33 5.591 24.951-3.452 8.22-11.987 13.518-21.759 13.518-3.17-.102-5.429 2.026-5.776 4.909-.88 7.513-.89 15.168-.043 22.741.314 2.824 3.692 4.918 6.557 4.918 8.708-.223 17.069 5.169 20.576 13.703 3.496 8.524 1.249 18.458-5.591 24.728a5.558 5.558 0 0 0-.608 7.535 99.313 99.313 0 0 0 15.82 16.005 5.56 5.56 0 0 0 7.61-.602c5.983-6.618 16.69-9.067 24.93-5.608 8.631 3.61 14.06 12.334 13.53 21.704a5.554 5.554 0 0 0 4.907 5.842 99.397 99.397 0 0 0 22.498.06 5.565 5.565 0 0 0 4.95-5.727c-.335-9.267 5.17-17.84 13.682-21.325 8.23-3.361 18.817-.901 24.766 5.635a5.588 5.588 0 0 0 7.547.63 99.557 99.557 0 0 0 16.178-15.994 5.552 5.552 0 0 0-.598-7.6c-6.96-6.303-9.218-16.33-5.602-24.946 3.4-8.11 11.617-13.557 20.457-13.557l1.237.032c2.867.233 5.505-1.975 5.853-4.902.88-7.52.891-15.168.044-22.742zm-99.213 44.671c-18.394 0-33.355-14.962-33.355-33.355 0-18.393 14.961-33.356 33.355-33.356 18.393 0 33.355 14.963 33.355 33.356s-14.962 33.355-33.355 33.355z" class="transform-group"/></symbol><symbol id="pay" viewbox="0 0 200 200"><path d="M54.19 133.07c-3.286 0-6.287-1.167-8.48-3.057-2.208 1.89-5.178 3.057-8.47 3.057-6.782 0-12.259-4.899-12.259-10.95 0-6.06 5.477-10.959 12.259-10.959 3.292 0 6.286 1.167 8.47 3.05 2.193-1.883 5.194-3.05 8.48-3.05 6.78 0 12.25 4.9 12.25 10.958 0 6.052-5.47 10.951-12.25 10.951m110.693-26.344c0-8.322-7.34-15.014-16.643-15.014H30.2c-9.305 0-17.265 6.692-17.265 15.014v39.945h151.948m22.528-56.623l-83.474-74.667c-3.293-2.938-7.583-4.422-11.905-4.422-4.298 0-8.62 1.483-11.905 4.422L34.41 56.26c-6.577 5.876-6.577 15.596 0 21.494l7.583 6.951h17.484L43.156 69.932a3.95 3.95 0 0 1-1.304-2.938c0-.612.165-1.849 1.304-2.882l6.035-5.23 28.681 25.824h27.534L62.95 46.554l25.923-23.28c1.132-1.012 2.475-1.202 3.159-1.202.7 0 2.027.127 3.182 1.146l83.475 74.646m-13.806 65.8H12.935v.886c0 8.322 7.96 15.105 17.264 15.105H148.24c9.304 0 16.643-6.783 16.643-15.105" class="transform-group"/></symbol><symbol id="restart" viewbox="0 0 200 200"><path d="M164.908 100c0 8.759-1.718 17.26-5.105 25.268a64.684 64.684 0 0 1-13.907 20.628 64.679 64.679 0 0 1-20.628 13.907c-8.009 3.387-16.509 5.105-25.267 5.105a64.905 64.905 0 0 1-47.37-20.535L35.95 161.055V115.44h45.616l-17.624 17.624a48.942 48.942 0 0 0 36.06 15.86c26.975 0 48.922-21.948 48.922-48.923 0-26.976-21.947-48.921-48.922-48.921-26.976 0-48.922 21.945-48.922 48.921H35.094c0-8.76 1.716-17.26 5.103-25.267 3.27-7.73 7.949-14.671 13.907-20.63s12.899-10.638 20.63-13.907C82.74 36.81 91.24 35.093 100 35.093c8.758 0 17.259 1.717 25.267 5.103 7.73 3.27 14.67 7.95 20.628 13.908s10.638 12.898 13.907 20.63c3.387 8.006 5.105 16.506 5.105 25.266z" class="transform-group"/></symbol><symbol id="search" viewbox="0 0 1024 1024"><path d="M953.504 908.256L800.896 744.96c61.856-74.496 95.872-167.36 95.872-265.12 0-229.344-186.624-415.968-416.032-415.968-229.344 0-415.968 186.592-415.968 415.968s186.624 415.968 416 415.968c60.096-.032 118.048-12.576 172.224-37.248 16.096-7.328 23.2-26.304 15.872-42.368-7.328-16.128-26.4-23.264-42.368-15.872-45.856 20.864-94.88 31.456-145.76 31.488-194.08 0-351.968-157.888-351.968-351.968 0-194.048 157.888-351.968 351.968-351.968 194.112 0 352.032 157.888 352.032 351.968 0 91.36-34.848 177.92-98.08 243.744-12.256 12.736-11.84 32.992.864 45.248.96.928 2.208 1.28 3.296 2.08.864 1.28 1.312 2.752 2.4 3.904l165.504 177.088c6.272 6.752 14.816 10.144 23.36 10.144 7.84 0 15.68-2.848 21.856-8.64 12.896-12 13.6-32.256 1.536-45.152z"/></symbol><symbol id="setting" viewbox="0 0 1280 1024"><path d="M254.336 618.667c23.893 0 48.213 18.346 58.027 39.68l7.253 15.786c11.093 20.907 8.107 50.347-8.533 66.987l-34.134 34.133c-16.64 16.64-18.773 45.654-2.986 63.147 19.2 21.76 40.106 41.387 63.146 59.307 18.347 14.506 48.214 11.52 64.854-5.12l35.413-35.414c16.64-16.64 46.933-20.906 68.693-11.946l7.68 2.986c22.187 8.107 40.96 31.574 40.96 55.04v49.067c0 23.893 18.774 46.507 42.24 48.64h.427c23.467 1.707 61.867 1.707 85.333 0h.427c23.467-2.133 42.24-24.747 42.24-48.64v-48.64c0-23.893 18.773-47.36 40.96-55.467l7.68-2.986c21.76-8.96 52.053-4.694 68.693 11.946l35.414 35.414c16.64 16.64 46.506 19.626 64.853 5.12 23.04-17.92 43.947-37.547 63.147-59.307 15.786-17.493 13.653-46.507-2.987-63.147l-34.133-33.706c-16.64-16.64-19.2-46.08-8.534-66.987l7.68-15.787c9.387-21.76 34.134-40.106 57.6-40.106h50.774c23.466 0 46.933-18.774 49.92-41.814l2.56-22.186c1.706-23.467 2.133-61.867 0-85.334-.854-11.946-21.334-21.333-44.8-21.333h-48.214c-23.466 0-45.653-18.773-52.906-41.387-2.987-9.813-5.974-19.2-9.814-28.586-8.96-21.76-4.693-52.054 11.947-68.694l35.413-35.84c16.64-16.64 20.054-46.08 5.547-64.853-17.92-22.613-37.973-43.52-59.733-62.72-17.494-15.787-46.507-13.653-63.147 2.987l-33.707 34.133c-16.64 16.64-46.08 19.2-66.986 8.533-11.947-5.973-23.894-11.093-36.267-15.786-22.187-8.107-40.96-31.574-40.96-55.04V71.253c0-23.466-18.773-46.08-42.24-48.213h-.427c-23.466-1.707-61.866-1.707-85.333 0h-.427c-23.466 2.133-42.24 24.747-42.24 48.213v49.494c0 23.466-18.773 46.933-40.96 55.04-12.373 4.693-24.32 9.813-36.266 15.786-20.907 10.667-50.347 8.107-66.987-8.533l-33.707-34.133c-16.64-16.64-45.653-18.774-63.146-2.987-21.76 19.2-41.387 40.107-59.307 63.147-14.507 18.346-11.52 48.213 5.12 64.853l35.413 35.413c16.64 16.64 20.907 46.934 11.947 68.694-3.84 9.386-6.827 18.773-9.813 28.586-7.254 22.614-29.44 41.387-52.907 41.387h-48.213c-23.467 0-45.227 18.773-46.08 42.667-.427 11.52-.427 40.533 1.28 64l2.56 22.186c2.986 23.04 26.453 41.814 49.92 41.814h50.773zm198.4-64.427c-5.12-23.04-5.12-61.44 0-84.48 16.213-72.107 72.96-128.853 145.067-145.067 23.04-5.12 61.44-5.12 84.48 0 72.106 16.214 128.853 72.96 145.066 145.067 5.12 23.04 5.12 61.44 0 84.48-16.213 72.107-72.96 128.853-145.066 145.067-23.04 5.12-61.44 5.12-84.48 0-72.107-16.214-128.854-72.96-145.067-145.067z"/></symbol><symbol id="theme" viewbox="0 0 200 200"><path d="M177.958 82.825l-14.816 15.33a6.824 6.824 0 0 1-9.88 0l-11.595-11.997v63.813h-.588c-1.642 6.496-6.912 11.433-13.446 12.341v.188H68.896v-.167a16.617 16.617 0 0 1-14.15-12.362h-.521v-3.567c-.008-.196-.058-.375-.058-.57 0-.197.05-.376.058-.572v-58.95L44.875 96c-2.658 2.754-6.967 2.754-9.62 0L20.82 81.046c-2.654-2.754-2.654-7.217 0-9.971l33.675-34.896.766.796c2.763-2.246 6.205-3.642 9.992-3.642 5.413 0 10.171 2.759 13.121 6.959h.575C84.258 46.25 91.704 50 100 50c10.058 0 18.93-5.458 24.17-13.758 2.638-1.78 5.742-2.909 9.163-2.909 5.809 0 10.909 2.98 13.892 7.48l30.733 31.791c2.725 2.825 2.725 7.4 0 10.221z" class="transform-group"/></symbol><symbol id="x_x" viewbox="0 0 200 200"><path d="M152.02 71.574l-1.17-1.17a1.655 1.655 0 0 0-2.34 0l-14.038 14.039-15.207-15.208a1.655 1.655 0 0 0-2.34 0l-1.17 1.17a1.655 1.655 0 0 0 0 2.34l15.207 15.207-15.207 15.208a1.655 1.655 0 0 0 0 2.34l1.17 1.17a1.655 1.655 0 0 0 2.34 0l15.207-15.208L148.51 105.5a1.655 1.655 0 0 0 2.34 0l1.17-1.17a1.655 1.655 0 0 0 0-2.34l-14.038-14.038 14.038-14.038a1.654 1.654 0 0 0 0-2.34zM76.787 105.5a1.655 1.655 0 0 0 2.34 0l1.17-1.17a1.655 1.655 0 0 0 0-2.34L66.259 87.951l14.038-14.038a1.655 1.655 0 0 0 0-2.34l-1.17-1.17a1.655 1.655 0 0 0-2.34 0L62.75 84.443 47.542 69.234a1.655 1.655 0 0 0-2.34 0l-1.17 1.17a1.655 1.655 0 0 0 0 2.34L59.239 87.95 44.032 103.16a1.655 1.655 0 0 0 0 2.34l1.17 1.17a1.655 1.655 0 0 0 2.34 0L62.749 91.46l14.038 14.038zm56.516 38.702H63.819c-.914 0-1.654.74-1.654 1.654v1.654c0 .914.74 1.655 1.654 1.655h69.484c.914 0 1.654-.74 1.654-1.655v-1.654c0-.913-.74-1.654-1.654-1.654zM100.215 3.579c-52.993 0-95.953 42.96-95.953 95.954s42.96 95.953 95.953 95.953 95.954-42.96 95.954-95.953-42.96-95.954-95.954-95.954zm64.302 160.255c-8.353 8.353-18.079 14.911-28.907 19.49-11.208 4.741-23.117 7.145-35.395 7.145s-24.187-2.404-35.395-7.144c-10.828-4.58-20.554-11.138-28.907-19.49-8.353-8.354-14.91-18.08-19.49-28.908-4.74-11.207-7.145-23.116-7.145-35.394s2.404-24.188 7.145-35.395c4.58-10.828 11.137-20.554 19.49-28.907C44.266 26.878 53.992 20.32 64.82 15.74 76.028 11 87.937 8.596 100.215 8.596s24.187 2.403 35.395 7.144c10.828 4.58 20.554 11.138 28.907 19.49 8.353 8.353 14.91 18.08 19.49 28.908 4.741 11.207 7.145 23.116 7.145 35.395s-2.404 24.187-7.144 35.395c-4.58 10.828-11.138 20.553-19.49 28.906z" class="transform-group"/></symbol></svg>
